<?xml version="1.0" encoding="UTF-8" standalone="no"?>
<!DOCTYPE svg PUBLIC "-//W3C//DTD SVG 1.1//EN"
 "http://www.w3.org/Graphics/SVG/1.1/DTD/svg11.dtd">
<!-- Generated by graphviz version 2.43.0 (0)
 -->
<!-- Title: introsort Pages: 1 -->
<svg width="396pt" height="119pt"
 viewBox="0.00 0.00 396.00 119.00" xmlns="http://www.w3.org/2000/svg" xmlns:xlink="http://www.w3.org/1999/xlink">

<svg id="main" version="1.1" xmlns="http://www.w3.org/2000/svg" xmlns:xlink="http://www.w3.org/1999/xlink" xml:space="preserve" onload="init(evt)">
<style type="text/css"><![CDATA[
.node, .edge {opacity: 0.7;}
.node.selected, .edge.selected {opacity: 1;}
.edge:hover path { stroke: red; }
.edge:hover polygon { stroke: red; fill: red; }
]]></style>
<script type="application/ecmascript" xlink:href="svg.min.js"/>
<svg id="graph" class="graph">
<g id="graph0" class="graph" transform="scale(1 1) rotate(0) translate(4 115)">
<title>introsort</title>
<!-- Node1 -->
<g id="Node000001" class="node">
<title>Node1</title>
<g id="a_Node000001"><a xlink:title=" ">
<polygon fill="#999999" stroke="#666666" points="58,-56 0,-56 0,-37 58,-37 58,-56"/>
<text text-anchor="middle" x="29" y="-44" font-family="Helvetica,sans-Serif" font-size="10.00">introsort</text>
</a>
</g>
</g>
<!-- Node2 -->
<g id="Node000002" class="node">
<title>Node2</title>
<g id="a_Node000002"><a xlink:href="introsort_8c.html#adca8f148ed3ed27c9d3c6ae7d42449d2" target="_top" xlink:title="Рекурсивная часть Introsort.">
<polygon fill="white" stroke="#666666" points="172,-56 94,-56 94,-37 172,-37 172,-56"/>
<text text-anchor="middle" x="133" y="-44" font-family="Helvetica,sans-Serif" font-size="10.00">introsort_rec</text>
</a>
</g>
</g>
<!-- Node1&#45;&gt;Node2 -->
<g id="edge1_Node000001_Node000002" class="edge">
<title>Node1&#45;&gt;Node2</title>
<g id="a_edge1_Node000001_Node000002"><a xlink:title=" ">
<path fill="none" stroke="#63b8ff" d="M58.14,-46.5C66.03,-46.5 74.83,-46.5 83.53,-46.5"/>
<polygon fill="#63b8ff" stroke="#63b8ff" points="83.64,-50 93.64,-46.5 83.64,-43 83.64,-50"/>
</a>
</g>
</g>
<!-- Node2&#45;&gt;Node2 -->
<g id="edge8_Node000002_Node000002" class="edge">
<title>Node2&#45;&gt;Node2</title>
<g id="a_edge8_Node000002_Node000002"><a xlink:title=" ">
<path fill="none" stroke="#63b8ff" d="M116.97,-56.08C109.17,-64.73 114.52,-74 133,-74 144.55,-74 150.97,-70.38 152.26,-65.55"/>
<polygon fill="#63b8ff" stroke="#63b8ff" points="155.57,-64.42 149.03,-56.08 148.94,-66.68 155.57,-64.42"/>
</a>
</g>
</g>
<!-- Node3 -->
<g id="Node000003" class="node">
<title>Node3</title>
<g id="a_Node000003"><a xlink:href="heapsort_8c.html#a44737cb5fedc09816e658cf5bcae3a6b" target="_top" xlink:title=" ">
<polygon fill="white" stroke="#666666" points="286,-93 221,-93 221,-74 286,-74 286,-93"/>
<text text-anchor="middle" x="253.5" y="-81" font-family="Helvetica,sans-Serif" font-size="10.00">heap_sort</text>
</a>
</g>
</g>
<!-- Node2&#45;&gt;Node3 -->
<g id="edge2_Node000002_Node000003" class="edge">
<title>Node2&#45;&gt;Node3</title>
<g id="a_edge2_Node000002_Node000003"><a xlink:title=" ">
<path fill="none" stroke="#63b8ff" d="M164.52,-56.03C178.92,-60.52 196.31,-65.95 211.81,-70.8"/>
<polygon fill="#63b8ff" stroke="#63b8ff" points="211.09,-74.24 221.67,-73.88 213.17,-67.55 211.09,-74.24"/>
</a>
</g>
</g>
<!-- Node5 -->
<g id="Node000005" class="node">
<title>Node5</title>
<g id="a_Node000005"><a xlink:href="introsort_8c.html#a5da04b971477c82162baaf8b47fdde95" target="_top" xlink:title=" ">
<polygon fill="white" stroke="#666666" points="299,-56 208,-56 208,-37 299,-37 299,-56"/>
<text text-anchor="middle" x="253.5" y="-44" font-family="Helvetica,sans-Serif" font-size="10.00">hoare_partition</text>
</a>
</g>
</g>
<!-- Node2&#45;&gt;Node5 -->
<g id="edge5_Node000002_Node000005" class="edge">
<title>Node2&#45;&gt;Node5</title>
<g id="a_edge5_Node000002_Node000005"><a xlink:title=" ">
<path fill="none" stroke="#63b8ff" d="M172.15,-46.5C180.32,-46.5 189.1,-46.5 197.76,-46.5"/>
<polygon fill="#63b8ff" stroke="#63b8ff" points="197.82,-50 207.82,-46.5 197.82,-43 197.82,-50"/>
</a>
</g>
</g>
<!-- Node7 -->
<g id="Node000007" class="node">
<title>Node7</title>
<g id="a_Node000007"><a xlink:href="introsort_8c.html#a4a843061f44eac503f8c5da0eaf3ac8f" target="_top" xlink:title=" ">
<polygon fill="white" stroke="#666666" points="295,-19 212,-19 212,0 295,0 295,-19"/>
<text text-anchor="middle" x="253.5" y="-7" font-family="Helvetica,sans-Serif" font-size="10.00">insertion_sort</text>
</a>
</g>
</g>
<!-- Node2&#45;&gt;Node7 -->
<g id="edge7_Node000002_Node000007" class="edge">
<title>Node2&#45;&gt;Node7</title>
<g id="a_edge7_Node000002_Node000007"><a xlink:title=" ">
<path fill="none" stroke="#63b8ff" d="M164.52,-36.97C178.92,-32.48 196.31,-27.05 211.81,-22.2"/>
<polygon fill="#63b8ff" stroke="#63b8ff" points="213.17,-25.45 221.67,-19.12 211.09,-18.76 213.17,-25.45"/>
</a>
</g>
</g>
<!-- Node4 -->
<g id="Node000004" class="node">
<title>Node4</title>
<g id="a_Node000004"><a xlink:href="heapsort_8c.html#a2d98df334ad3b180851b81f98b26a2d0" target="_top" xlink:title=" ">
<polygon fill="white" stroke="#666666" points="388,-93 335,-93 335,-74 388,-74 388,-93"/>
<text text-anchor="middle" x="361.5" y="-81" font-family="Helvetica,sans-Serif" font-size="10.00">heapify</text>
</a>
</g>
</g>
<!-- Node3&#45;&gt;Node4 -->
<g id="edge3_Node000003_Node000004" class="edge">
<title>Node3&#45;&gt;Node4</title>
<g id="a_edge3_Node000003_Node000004"><a xlink:title=" ">
<path fill="none" stroke="#63b8ff" d="M286.02,-83.5C298.22,-83.5 312.26,-83.5 324.83,-83.5"/>
<polygon fill="#63b8ff" stroke="#63b8ff" points="324.98,-87 334.98,-83.5 324.98,-80 324.98,-87"/>
</a>
</g>
</g>
<!-- Node4&#45;&gt;Node4 -->
<g id="edge4_Node000004_Node000004" class="edge">
<title>Node4&#45;&gt;Node4</title>
<g id="a_edge4_Node000004_Node000004"><a xlink:title=" ">
<path fill="none" stroke="#63b8ff" d="M344.85,-93.08C336.76,-101.73 342.3,-111 361.5,-111 373.5,-111 380.16,-107.38 381.5,-102.55"/>
<polygon fill="#63b8ff" stroke="#63b8ff" points="384.78,-101.34 378.15,-93.08 378.18,-103.68 384.78,-101.34"/>
</a>
</g>
</g>
<!-- Node6 -->
<g id="Node000006" class="node">
<title>Node6</title>
<g id="a_Node000006"><a xlink:href="efficient__sorts_8h.html#af72e64b45a2366d964f378b40ea0ddc2" target="_top" xlink:title=" ">
<polygon fill="white" stroke="#666666" points="382.5,-56 340.5,-56 340.5,-37 382.5,-37 382.5,-56"/>
<text text-anchor="middle" x="361.5" y="-44" font-family="Helvetica,sans-Serif" font-size="10.00">swap</text>
</a>
</g>
</g>
<!-- Node5&#45;&gt;Node6 -->
<g id="edge6_Node000005_Node000006" class="edge">
<title>Node5&#45;&gt;Node6</title>
<g id="a_edge6_Node000005_Node000006"><a xlink:title=" ">
<path fill="none" stroke="#63b8ff" d="M299.15,-46.5C309.59,-46.5 320.47,-46.5 330.13,-46.5"/>
<polygon fill="#63b8ff" stroke="#63b8ff" points="330.41,-50 340.41,-46.5 330.41,-43 330.41,-50"/>
</a>
</g>
</g>
</g>
</svg>
</svg>

<style type='text/css'>
<![CDATA[
[data-mouse-over-selected='false'] { opacity: 0.7; }
[data-mouse-over-selected='true']  { opacity: 1.0; }
]]>
</style>
<script type="application/ecmascript"><![CDATA[
document.addEventListener('DOMContentLoaded', (event) => {
  highlightEdges();
  highlightAdjacentNodes();
});
]]></script>
</svg>
