<?xml version="1.0" encoding="UTF-8" standalone="no"?>
<!DOCTYPE svg PUBLIC "-//W3C//DTD SVG 1.1//EN"
 "http://www.w3.org/Graphics/SVG/1.1/DTD/svg11.dtd">
<!-- Generated by graphviz version 2.43.0 (0)
 -->
<!-- Title: include/efficient_sorts.h Pages: 1 -->
<svg width="842pt" height="93pt"
 viewBox="0.00 0.00 841.50 93.00" xmlns="http://www.w3.org/2000/svg" xmlns:xlink="http://www.w3.org/1999/xlink">
<g id="graph0" class="graph" transform="scale(1 1) rotate(0) translate(4 89)">
<title>include/efficient_sorts.h</title>
<!-- Node1 -->
<g id="Node000001" class="node">
<title>Node1</title>
<g id="a_Node000001"><a xlink:title="Общий заголовочный файл проекта &quot;efficient_sorts&quot;.">
<polygon fill="#999999" stroke="#666666" points="467.5,-85 334.5,-85 334.5,-66 467.5,-66 467.5,-85"/>
<text text-anchor="middle" x="401" y="-73" font-family="Helvetica,sans-Serif" font-size="10.00">include/efficient_sorts.h</text>
</a>
</g>
</g>
<!-- Node2 -->
<g id="Node000002" class="node">
<title>Node2</title>
<g id="a_Node000002"><a xlink:href="sorting_8h.html" target="_top" xlink:title="Главный заголовочный файл библиотеки сортировки">
<polygon fill="white" stroke="#666666" points="98,-24.5 0,-24.5 0,-5.5 98,-5.5 98,-24.5"/>
<text text-anchor="middle" x="49" y="-12.5" font-family="Helvetica,sans-Serif" font-size="10.00">include/sorting.h</text>
</a>
</g>
</g>
<!-- Node1&#45;&gt;Node2 -->
<g id="edge1_Node000001_Node000002" class="edge">
<title>Node1&#45;&gt;Node2</title>
<g id="a_edge1_Node000001_Node000002"><a xlink:title=" ">
<path fill="none" stroke="#63b8ff" d="M324.38,-64.75C264.87,-56.74 180.39,-44.38 107,-30 98.97,-28.43 90.37,-26.49 82.32,-24.57"/>
<polygon fill="#63b8ff" stroke="#63b8ff" points="324.08,-68.24 334.45,-66.1 325.01,-61.31 324.08,-68.24"/>
</a>
</g>
</g>
<!-- Node3 -->
<g id="Node000003" class="node">
<title>Node3</title>
<g id="a_Node000003"><a xlink:href="heapsort_8c.html" target="_top" xlink:title=" ">
<polygon fill="white" stroke="#666666" points="245.5,-30 116.5,-30 116.5,0 245.5,0 245.5,-30"/>
<text text-anchor="start" x="124.5" y="-18" font-family="Helvetica,sans-Serif" font-size="10.00">src/algorithms/efficient</text>
<text text-anchor="middle" x="181" y="-7" font-family="Helvetica,sans-Serif" font-size="10.00">/heapsort.c</text>
</a>
</g>
</g>
<!-- Node1&#45;&gt;Node3 -->
<g id="edge2_Node000001_Node000003" class="edge">
<title>Node1&#45;&gt;Node3</title>
<g id="a_edge2_Node000001_Node000003"><a xlink:title=" ">
<path fill="none" stroke="#63b8ff" d="M358.96,-63.32C323.39,-53.86 272.24,-40.26 233.89,-30.06"/>
<polygon fill="#63b8ff" stroke="#63b8ff" points="358.45,-66.81 369.01,-65.99 360.25,-60.04 358.45,-66.81"/>
</a>
</g>
</g>
<!-- Node4 -->
<g id="Node000004" class="node">
<title>Node4</title>
<g id="a_Node000004"><a xlink:href="introsort_8c.html" target="_top" xlink:title=" ">
<polygon fill="white" stroke="#666666" points="392.5,-30 263.5,-30 263.5,0 392.5,0 392.5,-30"/>
<text text-anchor="start" x="271.5" y="-18" font-family="Helvetica,sans-Serif" font-size="10.00">src/algorithms/efficient</text>
<text text-anchor="middle" x="328" y="-7" font-family="Helvetica,sans-Serif" font-size="10.00">/introsort.c</text>
</a>
</g>
</g>
<!-- Node1&#45;&gt;Node4 -->
<g id="edge3_Node000001_Node000004" class="edge">
<title>Node1&#45;&gt;Node4</title>
<g id="a_edge3_Node000001_Node000004"><a xlink:title=" ">
<path fill="none" stroke="#63b8ff" d="M382.28,-59.5C370.99,-50.45 356.7,-39 345.61,-30.11"/>
<polygon fill="#63b8ff" stroke="#63b8ff" points="380.24,-62.35 390.23,-65.87 384.61,-56.88 380.24,-62.35"/>
</a>
</g>
</g>
<!-- Node5 -->
<g id="Node000005" class="node">
<title>Node5</title>
<g id="a_Node000005"><a xlink:href="mergesort_8c.html" target="_top" xlink:title=" ">
<polygon fill="white" stroke="#666666" points="539.5,-30 410.5,-30 410.5,0 539.5,0 539.5,-30"/>
<text text-anchor="start" x="418.5" y="-18" font-family="Helvetica,sans-Serif" font-size="10.00">src/algorithms/efficient</text>
<text text-anchor="middle" x="475" y="-7" font-family="Helvetica,sans-Serif" font-size="10.00">/mergesort.c</text>
</a>
</g>
</g>
<!-- Node1&#45;&gt;Node5 -->
<g id="edge4_Node000001_Node000005" class="edge">
<title>Node1&#45;&gt;Node5</title>
<g id="a_edge4_Node000001_Node000005"><a xlink:title=" ">
<path fill="none" stroke="#63b8ff" d="M419.97,-59.5C431.42,-50.45 445.91,-39 457.15,-30.11"/>
<polygon fill="#63b8ff" stroke="#63b8ff" points="417.59,-56.92 411.92,-65.87 421.93,-62.41 417.59,-56.92"/>
</a>
</g>
</g>
<!-- Node6 -->
<g id="Node000006" class="node">
<title>Node6</title>
<g id="a_Node000006"><a xlink:href="quicksort_8c.html" target="_top" xlink:title=" ">
<polygon fill="white" stroke="#666666" points="686.5,-30 557.5,-30 557.5,0 686.5,0 686.5,-30"/>
<text text-anchor="start" x="565.5" y="-18" font-family="Helvetica,sans-Serif" font-size="10.00">src/algorithms/efficient</text>
<text text-anchor="middle" x="622" y="-7" font-family="Helvetica,sans-Serif" font-size="10.00">/quicksort.c</text>
</a>
</g>
</g>
<!-- Node1&#45;&gt;Node6 -->
<g id="edge5_Node000001_Node000006" class="edge">
<title>Node1&#45;&gt;Node6</title>
<g id="a_edge5_Node000001_Node000006"><a xlink:title=" ">
<path fill="none" stroke="#63b8ff" d="M443.23,-63.32C478.96,-53.86 530.35,-40.26 568.87,-30.06"/>
<polygon fill="#63b8ff" stroke="#63b8ff" points="441.91,-60.05 433.14,-65.99 443.7,-66.82 441.91,-60.05"/>
</a>
</g>
</g>
<!-- Node7 -->
<g id="Node000007" class="node">
<title>Node7</title>
<g id="a_Node000007"><a xlink:href="timsort_8c.html" target="_top" xlink:title=" ">
<polygon fill="white" stroke="#666666" points="833.5,-30 704.5,-30 704.5,0 833.5,0 833.5,-30"/>
<text text-anchor="start" x="712.5" y="-18" font-family="Helvetica,sans-Serif" font-size="10.00">src/algorithms/efficient</text>
<text text-anchor="middle" x="769" y="-7" font-family="Helvetica,sans-Serif" font-size="10.00">/timsort.c</text>
</a>
</g>
</g>
<!-- Node1&#45;&gt;Node7 -->
<g id="edge6_Node000001_Node000007" class="edge">
<title>Node1&#45;&gt;Node7</title>
<g id="a_edge6_Node000001_Node000007"><a xlink:title=" ">
<path fill="none" stroke="#63b8ff" d="M472.51,-64.52C532.33,-55.99 619.87,-43.04 696,-30 698.67,-29.54 701.4,-29.07 704.15,-28.58"/>
<polygon fill="#63b8ff" stroke="#63b8ff" points="471.82,-61.09 462.42,-65.96 472.81,-68.02 471.82,-61.09"/>
</a>
</g>
</g>
</g>
</svg>
