<?xml version="1.0" encoding="UTF-8" standalone="no"?>
<!DOCTYPE svg PUBLIC "-//W3C//DTD SVG 1.1//EN"
 "http://www.w3.org/Graphics/SVG/1.1/DTD/svg11.dtd">
<!-- Generated by graphviz version 2.43.0 (0)
 -->
<!-- Title: timsort Pages: 1 -->
<svg width="179pt" height="101pt"
 viewBox="0.00 0.00 179.00 101.00" xmlns="http://www.w3.org/2000/svg" xmlns:xlink="http://www.w3.org/1999/xlink">
<g id="graph0" class="graph" transform="scale(1 1) rotate(0) translate(4 97)">
<title>timsort</title>
<!-- Node1 -->
<g id="Node000001" class="node">
<title>Node1</title>
<g id="a_Node000001"><a xlink:title=" ">
<polygon fill="#999999" stroke="#666666" points="52,-56 0,-56 0,-37 52,-37 52,-56"/>
<text text-anchor="middle" x="26" y="-44" font-family="Helvetica,sans-Serif" font-size="10.00">timsort</text>
</a>
</g>
</g>
<!-- Node2 -->
<g id="Node000002" class="node">
<title>Node2</title>
<g id="a_Node000002"><a xlink:href="timsort_8c.html#a53d80f5b21089f355902792151c29520" target="_top" xlink:title=" ">
<polygon fill="white" stroke="#666666" points="163.5,-93 95.5,-93 95.5,-74 163.5,-74 163.5,-93"/>
<text text-anchor="middle" x="129.5" y="-81" font-family="Helvetica,sans-Serif" font-size="10.00">GetMinrun</text>
</a>
</g>
</g>
<!-- Node1&#45;&gt;Node2 -->
<g id="edge1_Node000001_Node000002" class="edge">
<title>Node1&#45;&gt;Node2</title>
<g id="a_edge1_Node000001_Node000002"><a xlink:title=" ">
<path fill="none" stroke="#63b8ff" d="M52.09,-55.65C64.37,-60.12 79.38,-65.59 92.83,-70.5"/>
<polygon fill="#63b8ff" stroke="#63b8ff" points="91.69,-73.81 102.28,-73.94 94.09,-67.23 91.69,-73.81"/>
</a>
</g>
</g>
<!-- Node3 -->
<g id="Node000003" class="node">
<title>Node3</title>
<g id="a_Node000003"><a xlink:href="timsort_8c.html#a4a843061f44eac503f8c5da0eaf3ac8f" target="_top" xlink:title=" ">
<polygon fill="white" stroke="#666666" points="171,-56 88,-56 88,-37 171,-37 171,-56"/>
<text text-anchor="middle" x="129.5" y="-44" font-family="Helvetica,sans-Serif" font-size="10.00">insertion_sort</text>
</a>
</g>
</g>
<!-- Node1&#45;&gt;Node3 -->
<g id="edge2_Node000001_Node000003" class="edge">
<title>Node1&#45;&gt;Node3</title>
<g id="a_edge2_Node000001_Node000003"><a xlink:title=" ">
<path fill="none" stroke="#63b8ff" d="M52.09,-46.5C59.94,-46.5 68.9,-46.5 77.85,-46.5"/>
<polygon fill="#63b8ff" stroke="#63b8ff" points="77.9,-50 87.9,-46.5 77.9,-43 77.9,-50"/>
</a>
</g>
</g>
<!-- Node4 -->
<g id="Node000004" class="node">
<title>Node4</title>
<g id="a_Node000004"><a xlink:href="timsort_8c.html#aad2e426cf656d67f1dae5039f65b4057" target="_top" xlink:title=" ">
<polygon fill="white" stroke="#666666" points="153.5,-19 105.5,-19 105.5,0 153.5,0 153.5,-19"/>
<text text-anchor="middle" x="129.5" y="-7" font-family="Helvetica,sans-Serif" font-size="10.00">merge</text>
</a>
</g>
</g>
<!-- Node1&#45;&gt;Node4 -->
<g id="edge3_Node000001_Node000004" class="edge">
<title>Node1&#45;&gt;Node4</title>
<g id="a_edge3_Node000001_Node000004"><a xlink:title=" ">
<path fill="none" stroke="#63b8ff" d="M52.09,-37.35C65.35,-32.52 81.78,-26.53 96.01,-21.35"/>
<polygon fill="#63b8ff" stroke="#63b8ff" points="97.24,-24.62 105.43,-17.91 94.84,-18.04 97.24,-24.62"/>
</a>
</g>
</g>
</g>
</svg>
