<?xml version="1.0" encoding="UTF-8" standalone="no"?>
<!DOCTYPE svg PUBLIC "-//W3C//DTD SVG 1.1//EN"
 "http://www.w3.org/Graphics/SVG/1.1/DTD/svg11.dtd">
<!-- Generated by graphviz version 2.43.0 (0)
 -->
<!-- Title: merge_sort Pages: 1 -->
<svg width="287pt" height="82pt"
 viewBox="0.00 0.00 287.00 82.00" xmlns="http://www.w3.org/2000/svg" xmlns:xlink="http://www.w3.org/1999/xlink">
<g id="graph0" class="graph" transform="scale(1 1) rotate(0) translate(4 78)">
<title>merge_sort</title>
<!-- Node1 -->
<g id="Node000001" class="node">
<title>Node1</title>
<g id="a_Node000001"><a xlink:title=" ">
<polygon fill="#999999" stroke="#666666" points="72,-46 0,-46 0,-27 72,-27 72,-46"/>
<text text-anchor="middle" x="36" y="-34" font-family="Helvetica,sans-Serif" font-size="10.00">merge_sort</text>
</a>
</g>
</g>
<!-- Node2 -->
<g id="Node000002" class="node">
<title>Node2</title>
<g id="a_Node000002"><a xlink:href="mergesort_8c.html#a7b2e263f3d2f7ab11c63d860707b8754" target="_top" xlink:title=" ">
<polygon fill="white" stroke="#666666" points="195,-74 108,-74 108,-55 195,-55 195,-74"/>
<text text-anchor="middle" x="151.5" y="-62" font-family="Helvetica,sans-Serif" font-size="10.00">merge_sort_bt</text>
</a>
</g>
</g>
<!-- Node1&#45;&gt;Node2 -->
<g id="edge1_Node000001_Node000002" class="edge">
<title>Node1&#45;&gt;Node2</title>
<g id="a_edge1_Node000001_Node000002"><a xlink:title=" ">
<path fill="none" stroke="#63b8ff" d="M72.29,-45.21C81.66,-47.52 91.95,-50.06 101.89,-52.51"/>
<polygon fill="#63b8ff" stroke="#63b8ff" points="101.13,-55.93 111.68,-54.92 102.81,-49.13 101.13,-55.93"/>
</a>
</g>
</g>
<!-- Node3 -->
<g id="Node000003" class="node">
<title>Node3</title>
<g id="a_Node000003"><a xlink:href="mergesort_8c.html#a3726b75ea0cef7b4799912375afec285" target="_top" xlink:title=" ">
<polygon fill="white" stroke="#666666" points="195,-19 108,-19 108,0 195,0 195,-19"/>
<text text-anchor="middle" x="151.5" y="-7" font-family="Helvetica,sans-Serif" font-size="10.00">merge_sort_td</text>
</a>
</g>
</g>
<!-- Node1&#45;&gt;Node3 -->
<g id="edge2_Node000001_Node000003" class="edge">
<title>Node1&#45;&gt;Node3</title>
<g id="a_edge2_Node000001_Node000003"><a xlink:title=" ">
<path fill="none" stroke="#63b8ff" d="M72.29,-28.11C81.27,-25.97 91.1,-23.63 100.66,-21.36"/>
<polygon fill="#63b8ff" stroke="#63b8ff" points="101.56,-24.74 110.48,-19.02 99.94,-17.93 101.56,-24.74"/>
</a>
</g>
</g>
<!-- Node3&#45;&gt;Node3 -->
<g id="edge4_Node000003_Node000003" class="edge">
<title>Node3&#45;&gt;Node3</title>
<g id="a_edge4_Node000003_Node000003"><a xlink:title=" ">
<path fill="none" stroke="#63b8ff" d="M135.78,-19.08C128.13,-27.73 133.37,-37 151.5,-37 162.55,-37 168.81,-33.56 170.28,-28.91"/>
<polygon fill="#63b8ff" stroke="#63b8ff" points="173.54,-27.59 167.22,-19.08 166.85,-29.67 173.54,-27.59"/>
</a>
</g>
</g>
<!-- Node4 -->
<g id="Node000004" class="node">
<title>Node4</title>
<g id="a_Node000004"><a xlink:href="mergesort_8c.html#aad2e426cf656d67f1dae5039f65b4057" target="_top" xlink:title=" ">
<polygon fill="white" stroke="#666666" points="279,-19 231,-19 231,0 279,0 279,-19"/>
<text text-anchor="middle" x="255" y="-7" font-family="Helvetica,sans-Serif" font-size="10.00">merge</text>
</a>
</g>
</g>
<!-- Node3&#45;&gt;Node4 -->
<g id="edge3_Node000003_Node000004" class="edge">
<title>Node3&#45;&gt;Node4</title>
<g id="a_edge3_Node000003_Node000004"><a xlink:title=" ">
<path fill="none" stroke="#63b8ff" d="M195.25,-9.5C203.76,-9.5 212.59,-9.5 220.72,-9.5"/>
<polygon fill="#63b8ff" stroke="#63b8ff" points="220.95,-13 230.95,-9.5 220.95,-6 220.95,-13"/>
</a>
</g>
</g>
</g>
</svg>
