<?xml version="1.0" encoding="UTF-8" standalone="no"?>
<!DOCTYPE svg PUBLIC "-//W3C//DTD SVG 1.1//EN"
 "http://www.w3.org/Graphics/SVG/1.1/DTD/svg11.dtd">
<!-- Generated by graphviz version 2.43.0 (0)
 -->
<!-- Title: swap Pages: 1 -->
<svg width="385pt" height="45pt"
 viewBox="0.00 0.00 385.00 45.00" xmlns="http://www.w3.org/2000/svg" xmlns:xlink="http://www.w3.org/1999/xlink">
<g id="graph0" class="graph" transform="scale(1 1) rotate(0) translate(4 41)">
<title>swap</title>
<!-- Node1 -->
<g id="Node000001" class="node">
<title>Node1</title>
<g id="a_Node000001"><a xlink:title=" ">
<polygon fill="#999999" stroke="#666666" points="377,-19 335,-19 335,0 377,0 377,-19"/>
<text text-anchor="middle" x="356" y="-7" font-family="Helvetica,sans-Serif" font-size="10.00">swap</text>
</a>
</g>
</g>
<!-- Node2 -->
<g id="Node000002" class="node">
<title>Node2</title>
<g id="a_Node000002"><a xlink:href="introsort_8c.html#a5da04b971477c82162baaf8b47fdde95" target="_top" xlink:title=" ">
<polygon fill="white" stroke="#666666" points="299,-19 208,-19 208,0 299,0 299,-19"/>
<text text-anchor="middle" x="253.5" y="-7" font-family="Helvetica,sans-Serif" font-size="10.00">hoare_partition</text>
</a>
</g>
</g>
<!-- Node1&#45;&gt;Node2 -->
<g id="edge1_Node000001_Node000002" class="edge">
<title>Node1&#45;&gt;Node2</title>
<g id="a_edge1_Node000001_Node000002"><a xlink:title=" ">
<path fill="none" stroke="#63b8ff" d="M324.42,-9.5C316.5,-9.5 307.79,-9.5 299.3,-9.5"/>
<polygon fill="#63b8ff" stroke="#63b8ff" points="324.66,-13 334.66,-9.5 324.66,-6 324.66,-13"/>
</a>
</g>
</g>
<!-- Node3 -->
<g id="Node000003" class="node">
<title>Node3</title>
<g id="a_Node000003"><a xlink:href="introsort_8c.html#adca8f148ed3ed27c9d3c6ae7d42449d2" target="_top" xlink:title="Рекурсивная часть Introsort.">
<polygon fill="white" stroke="#666666" points="172,-19 94,-19 94,0 172,0 172,-19"/>
<text text-anchor="middle" x="133" y="-7" font-family="Helvetica,sans-Serif" font-size="10.00">introsort_rec</text>
</a>
</g>
</g>
<!-- Node2&#45;&gt;Node3 -->
<g id="edge2_Node000002_Node000003" class="edge">
<title>Node2&#45;&gt;Node3</title>
<g id="a_edge2_Node000002_Node000003"><a xlink:title=" ">
<path fill="none" stroke="#63b8ff" d="M197.43,-9.5C188.93,-9.5 180.31,-9.5 172.28,-9.5"/>
<polygon fill="#63b8ff" stroke="#63b8ff" points="197.7,-13 207.7,-9.5 197.7,-6 197.7,-13"/>
</a>
</g>
</g>
<!-- Node3&#45;&gt;Node3 -->
<g id="edge4_Node000003_Node000003" class="edge">
<title>Node3&#45;&gt;Node3</title>
<g id="a_edge4_Node000003_Node000003"><a xlink:title=" ">
<path fill="none" stroke="#63b8ff" d="M152.26,-28.55C150.97,-33.38 144.55,-37 133,-37 114.52,-37 109.17,-27.73 116.97,-19.08"/>
<polygon fill="#63b8ff" stroke="#63b8ff" points="155.57,-27.42 149.03,-19.08 148.94,-29.68 155.57,-27.42"/>
</a>
</g>
</g>
<!-- Node4 -->
<g id="Node000004" class="node">
<title>Node4</title>
<g id="a_Node000004"><a xlink:href="introsort_8c.html#a50a74fe9cf4a04131805340be5223446" target="_top" xlink:title=" ">
<polygon fill="white" stroke="#666666" points="58,-19 0,-19 0,0 58,0 58,-19"/>
<text text-anchor="middle" x="29" y="-7" font-family="Helvetica,sans-Serif" font-size="10.00">introsort</text>
</a>
</g>
</g>
<!-- Node3&#45;&gt;Node4 -->
<g id="edge3_Node000003_Node000004" class="edge">
<title>Node3&#45;&gt;Node4</title>
<g id="a_edge3_Node000003_Node000004"><a xlink:title=" ">
<path fill="none" stroke="#63b8ff" d="M83.64,-9.5C74.95,-9.5 66.17,-9.5 58.29,-9.5"/>
<polygon fill="#63b8ff" stroke="#63b8ff" points="83.73,-13 93.73,-9.5 83.73,-6 83.73,-13"/>
</a>
</g>
</g>
</g>
</svg>
