<?xml version="1.0" encoding="UTF-8" standalone="no"?>
<!DOCTYPE svg PUBLIC "-//W3C//DTD SVG 1.1//EN"
 "http://www.w3.org/Graphics/SVG/1.1/DTD/svg11.dtd">
<!-- Generated by graphviz version 2.43.0 (0)
 -->
<!-- Title: introsort_rec Pages: 1 -->
<svg width="302pt" height="119pt"
 viewBox="0.00 0.00 302.00 119.00" xmlns="http://www.w3.org/2000/svg" xmlns:xlink="http://www.w3.org/1999/xlink">
<g id="graph0" class="graph" transform="scale(1 1) rotate(0) translate(4 115)">
<title>introsort_rec</title>
<!-- Node1 -->
<g id="Node000001" class="node">
<title>Node1</title>
<g id="a_Node000001"><a xlink:title="Рекурсивная часть Introsort.">
<polygon fill="#999999" stroke="#666666" points="78,-56 0,-56 0,-37 78,-37 78,-56"/>
<text text-anchor="middle" x="39" y="-44" font-family="Helvetica,sans-Serif" font-size="10.00">introsort_rec</text>
</a>
</g>
</g>
<!-- Node1&#45;&gt;Node1 -->
<g id="edge7_Node000001_Node000001" class="edge">
<title>Node1&#45;&gt;Node1</title>
<g id="a_edge7_Node000001_Node000001"><a xlink:title=" ">
<path fill="none" stroke="#63b8ff" d="M20.5,-56.08C11.51,-64.73 17.67,-74 39,-74 52.33,-74 59.74,-70.38 61.22,-65.55"/>
<polygon fill="#63b8ff" stroke="#63b8ff" points="64.41,-64.11 57.5,-56.08 57.9,-66.67 64.41,-64.11"/>
</a>
</g>
</g>
<!-- Node2 -->
<g id="Node000002" class="node">
<title>Node2</title>
<g id="a_Node000002"><a xlink:href="heapsort_8c.html#a44737cb5fedc09816e658cf5bcae3a6b" target="_top" xlink:title=" ">
<polygon fill="white" stroke="#666666" points="192,-93 127,-93 127,-74 192,-74 192,-93"/>
<text text-anchor="middle" x="159.5" y="-81" font-family="Helvetica,sans-Serif" font-size="10.00">heap_sort</text>
</a>
</g>
</g>
<!-- Node1&#45;&gt;Node2 -->
<g id="edge1_Node000001_Node000002" class="edge">
<title>Node1&#45;&gt;Node2</title>
<g id="a_edge1_Node000001_Node000002"><a xlink:title=" ">
<path fill="none" stroke="#63b8ff" d="M70.52,-56.03C84.92,-60.52 102.31,-65.95 117.81,-70.8"/>
<polygon fill="#63b8ff" stroke="#63b8ff" points="117.09,-74.24 127.67,-73.88 119.17,-67.55 117.09,-74.24"/>
</a>
</g>
</g>
<!-- Node4 -->
<g id="Node000004" class="node">
<title>Node4</title>
<g id="a_Node000004"><a xlink:href="introsort_8c.html#a5da04b971477c82162baaf8b47fdde95" target="_top" xlink:title=" ">
<polygon fill="white" stroke="#666666" points="205,-56 114,-56 114,-37 205,-37 205,-56"/>
<text text-anchor="middle" x="159.5" y="-44" font-family="Helvetica,sans-Serif" font-size="10.00">hoare_partition</text>
</a>
</g>
</g>
<!-- Node1&#45;&gt;Node4 -->
<g id="edge4_Node000001_Node000004" class="edge">
<title>Node1&#45;&gt;Node4</title>
<g id="a_edge4_Node000001_Node000004"><a xlink:title=" ">
<path fill="none" stroke="#63b8ff" d="M78.15,-46.5C86.32,-46.5 95.1,-46.5 103.76,-46.5"/>
<polygon fill="#63b8ff" stroke="#63b8ff" points="103.82,-50 113.82,-46.5 103.82,-43 103.82,-50"/>
</a>
</g>
</g>
<!-- Node6 -->
<g id="Node000006" class="node">
<title>Node6</title>
<g id="a_Node000006"><a xlink:href="introsort_8c.html#a4a843061f44eac503f8c5da0eaf3ac8f" target="_top" xlink:title=" ">
<polygon fill="white" stroke="#666666" points="201,-19 118,-19 118,0 201,0 201,-19"/>
<text text-anchor="middle" x="159.5" y="-7" font-family="Helvetica,sans-Serif" font-size="10.00">insertion_sort</text>
</a>
</g>
</g>
<!-- Node1&#45;&gt;Node6 -->
<g id="edge6_Node000001_Node000006" class="edge">
<title>Node1&#45;&gt;Node6</title>
<g id="a_edge6_Node000001_Node000006"><a xlink:title=" ">
<path fill="none" stroke="#63b8ff" d="M70.52,-36.97C84.92,-32.48 102.31,-27.05 117.81,-22.2"/>
<polygon fill="#63b8ff" stroke="#63b8ff" points="119.17,-25.45 127.67,-19.12 117.09,-18.76 119.17,-25.45"/>
</a>
</g>
</g>
<!-- Node3 -->
<g id="Node000003" class="node">
<title>Node3</title>
<g id="a_Node000003"><a xlink:href="heapsort_8c.html#a2d98df334ad3b180851b81f98b26a2d0" target="_top" xlink:title=" ">
<polygon fill="white" stroke="#666666" points="294,-93 241,-93 241,-74 294,-74 294,-93"/>
<text text-anchor="middle" x="267.5" y="-81" font-family="Helvetica,sans-Serif" font-size="10.00">heapify</text>
</a>
</g>
</g>
<!-- Node2&#45;&gt;Node3 -->
<g id="edge2_Node000002_Node000003" class="edge">
<title>Node2&#45;&gt;Node3</title>
<g id="a_edge2_Node000002_Node000003"><a xlink:title=" ">
<path fill="none" stroke="#63b8ff" d="M192.02,-83.5C204.22,-83.5 218.26,-83.5 230.83,-83.5"/>
<polygon fill="#63b8ff" stroke="#63b8ff" points="230.98,-87 240.98,-83.5 230.98,-80 230.98,-87"/>
</a>
</g>
</g>
<!-- Node3&#45;&gt;Node3 -->
<g id="edge3_Node000003_Node000003" class="edge">
<title>Node3&#45;&gt;Node3</title>
<g id="a_edge3_Node000003_Node000003"><a xlink:title=" ">
<path fill="none" stroke="#63b8ff" d="M250.85,-93.08C242.76,-101.73 248.3,-111 267.5,-111 279.5,-111 286.16,-107.38 287.5,-102.55"/>
<polygon fill="#63b8ff" stroke="#63b8ff" points="290.78,-101.34 284.15,-93.08 284.18,-103.68 290.78,-101.34"/>
</a>
</g>
</g>
<!-- Node5 -->
<g id="Node000005" class="node">
<title>Node5</title>
<g id="a_Node000005"><a xlink:href="efficient__sorts_8h.html#af72e64b45a2366d964f378b40ea0ddc2" target="_top" xlink:title=" ">
<polygon fill="white" stroke="#666666" points="288.5,-56 246.5,-56 246.5,-37 288.5,-37 288.5,-56"/>
<text text-anchor="middle" x="267.5" y="-44" font-family="Helvetica,sans-Serif" font-size="10.00">swap</text>
</a>
</g>
</g>
<!-- Node4&#45;&gt;Node5 -->
<g id="edge5_Node000004_Node000005" class="edge">
<title>Node4&#45;&gt;Node5</title>
<g id="a_edge5_Node000004_Node000005"><a xlink:title=" ">
<path fill="none" stroke="#63b8ff" d="M205.15,-46.5C215.59,-46.5 226.47,-46.5 236.13,-46.5"/>
<polygon fill="#63b8ff" stroke="#63b8ff" points="236.41,-50 246.41,-46.5 236.41,-43 236.41,-50"/>
</a>
</g>
</g>
</g>
</svg>
