<?xml version="1.0" encoding="UTF-8" standalone="no"?>
<!DOCTYPE svg PUBLIC "-//W3C//DTD SVG 1.1//EN"
 "http://www.w3.org/Graphics/SVG/1.1/DTD/svg11.dtd">
<!-- Generated by graphviz version 2.43.0 (0)
 -->
<!-- Title: src/algorithms/efficient/mergesort.c Pages: 1 -->
<svg width="202pt" height="159pt"
 viewBox="0.00 0.00 201.50 159.00" xmlns="http://www.w3.org/2000/svg" xmlns:xlink="http://www.w3.org/1999/xlink">
<g id="graph0" class="graph" transform="scale(1 1) rotate(0) translate(4 155)">
<title>src/algorithms/efficient/mergesort.c</title>
<!-- Node1 -->
<g id="Node000001" class="node">
<title>Node1</title>
<g id="a_Node000001"><a xlink:title=" ">
<polygon fill="#999999" stroke="#666666" points="144,-151 15,-151 15,-121 144,-121 144,-151"/>
<text text-anchor="start" x="23" y="-139" font-family="Helvetica,sans-Serif" font-size="10.00">src/algorithms/efficient</text>
<text text-anchor="middle" x="79.5" y="-128" font-family="Helvetica,sans-Serif" font-size="10.00">/mergesort.c</text>
</a>
</g>
</g>
<!-- Node2 -->
<g id="Node000002" class="node">
<title>Node2</title>
<g id="a_Node000002"><a xlink:title=" ">
<polygon fill="#e0e0e0" stroke="#999999" points="53,-79.5 0,-79.5 0,-60.5 53,-60.5 53,-79.5"/>
<text text-anchor="middle" x="26.5" y="-67.5" font-family="Helvetica,sans-Serif" font-size="10.00">stdlib.h</text>
</a>
</g>
</g>
<!-- Node1&#45;&gt;Node2 -->
<g id="edge1_Node000001_Node000002" class="edge">
<title>Node1&#45;&gt;Node2</title>
<g id="a_edge1_Node000001_Node000002"><a xlink:title=" ">
<path fill="none" stroke="#63b8ff" d="M67.74,-120.8C59.64,-111.01 48.84,-97.98 40.33,-87.7"/>
<polygon fill="#63b8ff" stroke="#63b8ff" points="42.9,-85.31 33.82,-79.84 37.51,-89.78 42.9,-85.31"/>
</a>
</g>
</g>
<!-- Node3 -->
<g id="Node000003" class="node">
<title>Node3</title>
<g id="a_Node000003"><a xlink:href="efficient__sorts_8h.html" target="_top" xlink:title="Общий заголовочный файл проекта &quot;efficient_sorts&quot;.">
<polygon fill="white" stroke="#666666" points="193.5,-85 71.5,-85 71.5,-55 193.5,-55 193.5,-85"/>
<text text-anchor="start" x="79.5" y="-73" font-family="Helvetica,sans-Serif" font-size="10.00">../../../include/efficient</text>
<text text-anchor="middle" x="132.5" y="-62" font-family="Helvetica,sans-Serif" font-size="10.00">_sorts.h</text>
</a>
</g>
</g>
<!-- Node1&#45;&gt;Node3 -->
<g id="edge2_Node000001_Node000003" class="edge">
<title>Node1&#45;&gt;Node3</title>
<g id="a_edge2_Node000001_Node000003"><a xlink:title=" ">
<path fill="none" stroke="#63b8ff" d="M91.26,-120.8C98.06,-112.59 106.74,-102.1 114.39,-92.87"/>
<polygon fill="#63b8ff" stroke="#63b8ff" points="117.09,-95.1 120.77,-85.16 111.7,-90.63 117.09,-95.1"/>
</a>
</g>
</g>
<!-- Node4 -->
<g id="Node000004" class="node">
<title>Node4</title>
<g id="a_Node000004"><a xlink:title=" ">
<polygon fill="#e0e0e0" stroke="#999999" points="160.5,-19 104.5,-19 104.5,0 160.5,0 160.5,-19"/>
<text text-anchor="middle" x="132.5" y="-7" font-family="Helvetica,sans-Serif" font-size="10.00">stddef.h</text>
</a>
</g>
</g>
<!-- Node3&#45;&gt;Node4 -->
<g id="edge3_Node000003_Node000004" class="edge">
<title>Node3&#45;&gt;Node4</title>
<g id="a_edge3_Node000003_Node000004"><a xlink:title=" ">
<path fill="none" stroke="#63b8ff" d="M132.5,-54.84C132.5,-47.21 132.5,-37.7 132.5,-29.45"/>
<polygon fill="#63b8ff" stroke="#63b8ff" points="136,-29.27 132.5,-19.27 129,-29.27 136,-29.27"/>
</a>
</g>
</g>
</g>
</svg>
