<?xml version="1.0" encoding="UTF-8" standalone="no"?>
<!DOCTYPE svg PUBLIC "-//W3C//DTD SVG 1.1//EN"
 "http://www.w3.org/Graphics/SVG/1.1/DTD/svg11.dtd">
<!-- Generated by graphviz version 2.43.0 (0)
 -->
<!-- Title: src/algorithms/simple/selection.c Pages: 1 -->
<svg width="349pt" height="148pt"
 viewBox="0.00 0.00 349.00 148.00" xmlns="http://www.w3.org/2000/svg" xmlns:xlink="http://www.w3.org/1999/xlink">
<g id="graph0" class="graph" transform="scale(1 1) rotate(0) translate(4 144)">
<title>src/algorithms/simple/selection.c</title>
<!-- Node1 -->
<g id="Node000001" class="node">
<title>Node1</title>
<g id="a_Node000001"><a xlink:title=" ">
<polygon fill="#999999" stroke="#666666" points="230,-140 108,-140 108,-110 230,-110 230,-140"/>
<text text-anchor="start" x="116" y="-128" font-family="Helvetica,sans-Serif" font-size="10.00">src/algorithms/simple</text>
<text text-anchor="middle" x="169" y="-117" font-family="Helvetica,sans-Serif" font-size="10.00">/selection.c</text>
</a>
</g>
</g>
<!-- Node2 -->
<g id="Node000002" class="node">
<title>Node2</title>
<g id="a_Node000002"><a xlink:href="simple__sorts_8h.html" target="_top" xlink:title=" ">
<polygon fill="white" stroke="#666666" points="213,-74 125,-74 125,-55 213,-55 213,-74"/>
<text text-anchor="middle" x="169" y="-62" font-family="Helvetica,sans-Serif" font-size="10.00">simple_sorts.h</text>
</a>
</g>
</g>
<!-- Node1&#45;&gt;Node2 -->
<g id="edge1_Node000001_Node000002" class="edge">
<title>Node1&#45;&gt;Node2</title>
<g id="a_edge1_Node000001_Node000002"><a xlink:title=" ">
<path fill="none" stroke="#63b8ff" d="M169,-109.84C169,-102.21 169,-92.7 169,-84.45"/>
<polygon fill="#63b8ff" stroke="#63b8ff" points="172.5,-84.27 169,-74.27 165.5,-84.27 172.5,-84.27"/>
</a>
</g>
</g>
<!-- Node3 -->
<g id="Node000003" class="node">
<title>Node3</title>
<g id="a_Node000003"><a xlink:title=" ">
<polygon fill="#e0e0e0" stroke="#999999" points="56,-19 0,-19 0,0 56,0 56,-19"/>
<text text-anchor="middle" x="28" y="-7" font-family="Helvetica,sans-Serif" font-size="10.00">stddef.h</text>
</a>
</g>
</g>
<!-- Node2&#45;&gt;Node3 -->
<g id="edge2_Node000002_Node000003" class="edge">
<title>Node2&#45;&gt;Node3</title>
<g id="a_edge2_Node000002_Node000003"><a xlink:title=" ">
<path fill="none" stroke="#63b8ff" d="M146.35,-54.98C123.15,-46.27 86.88,-32.63 60.6,-22.75"/>
<polygon fill="#63b8ff" stroke="#63b8ff" points="61.66,-19.41 51.07,-19.17 59.2,-25.97 61.66,-19.41"/>
</a>
</g>
</g>
<!-- Node4 -->
<g id="Node000004" class="node">
<title>Node4</title>
<g id="a_Node000004"><a xlink:title=" ">
<polygon fill="#e0e0e0" stroke="#999999" points="124,-19 74,-19 74,0 124,0 124,-19"/>
<text text-anchor="middle" x="99" y="-7" font-family="Helvetica,sans-Serif" font-size="10.00">stdio.h</text>
</a>
</g>
</g>
<!-- Node2&#45;&gt;Node4 -->
<g id="edge3_Node000002_Node000004" class="edge">
<title>Node2&#45;&gt;Node4</title>
<g id="a_edge3_Node000002_Node000004"><a xlink:title=" ">
<path fill="none" stroke="#63b8ff" d="M157.75,-54.98C147.2,-47 131.2,-34.88 118.56,-25.31"/>
<polygon fill="#63b8ff" stroke="#63b8ff" points="120.54,-22.42 110.45,-19.17 116.31,-28 120.54,-22.42"/>
</a>
</g>
</g>
<!-- Node5 -->
<g id="Node000005" class="node">
<title>Node5</title>
<g id="a_Node000005"><a xlink:title=" ">
<polygon fill="#e0e0e0" stroke="#999999" points="195.5,-19 142.5,-19 142.5,0 195.5,0 195.5,-19"/>
<text text-anchor="middle" x="169" y="-7" font-family="Helvetica,sans-Serif" font-size="10.00">stdlib.h</text>
</a>
</g>
</g>
<!-- Node2&#45;&gt;Node5 -->
<g id="edge4_Node000002_Node000005" class="edge">
<title>Node2&#45;&gt;Node5</title>
<g id="a_edge4_Node000002_Node000005"><a xlink:title=" ">
<path fill="none" stroke="#63b8ff" d="M169,-54.75C169,-47.8 169,-37.85 169,-29.13"/>
<polygon fill="#63b8ff" stroke="#63b8ff" points="172.5,-29.09 169,-19.09 165.5,-29.09 172.5,-29.09"/>
</a>
</g>
</g>
<!-- Node6 -->
<g id="Node000006" class="node">
<title>Node6</title>
<g id="a_Node000006"><a xlink:title=" ">
<polygon fill="#e0e0e0" stroke="#999999" points="266.5,-19 213.5,-19 213.5,0 266.5,0 266.5,-19"/>
<text text-anchor="middle" x="240" y="-7" font-family="Helvetica,sans-Serif" font-size="10.00">string.h</text>
</a>
</g>
</g>
<!-- Node2&#45;&gt;Node6 -->
<g id="edge5_Node000002_Node000006" class="edge">
<title>Node2&#45;&gt;Node6</title>
<g id="a_edge5_Node000002_Node000006"><a xlink:title=" ">
<path fill="none" stroke="#63b8ff" d="M180.41,-54.98C191.11,-47 207.34,-34.88 220.16,-25.31"/>
<polygon fill="#63b8ff" stroke="#63b8ff" points="222.47,-27.96 228.39,-19.17 218.28,-22.35 222.47,-27.96"/>
</a>
</g>
</g>
<!-- Node7 -->
<g id="Node000007" class="node">
<title>Node7</title>
<g id="a_Node000007"><a xlink:title=" ">
<polygon fill="#e0e0e0" stroke="#999999" points="341,-19 285,-19 285,0 341,0 341,-19"/>
<text text-anchor="middle" x="313" y="-7" font-family="Helvetica,sans-Serif" font-size="10.00">assert.h</text>
</a>
</g>
</g>
<!-- Node2&#45;&gt;Node7 -->
<g id="edge6_Node000002_Node000007" class="edge">
<title>Node2&#45;&gt;Node7</title>
<g id="a_edge6_Node000002_Node000007"><a xlink:title=" ">
<path fill="none" stroke="#63b8ff" d="M192.14,-54.98C215.82,-46.27 252.87,-32.63 279.71,-22.75"/>
<polygon fill="#63b8ff" stroke="#63b8ff" points="281.27,-25.91 289.44,-19.17 278.85,-19.34 281.27,-25.91"/>
</a>
</g>
</g>
</g>
</svg>
