<?xml version="1.0" encoding="UTF-8" standalone="no"?>
<!DOCTYPE svg PUBLIC "-//W3C//DTD SVG 1.1//EN"
 "http://www.w3.org/Graphics/SVG/1.1/DTD/svg11.dtd">
<!-- Generated by graphviz version 2.43.0 (0)
 -->
<!-- Title: include/simple_sorts.h Pages: 1 -->
<svg width="830pt" height="93pt"
 viewBox="0.00 0.00 830.00 93.00" xmlns="http://www.w3.org/2000/svg" xmlns:xlink="http://www.w3.org/1999/xlink">
<g id="graph0" class="graph" transform="scale(1 1) rotate(0) translate(4 89)">
<title>include/simple_sorts.h</title>
<!-- Node1 -->
<g id="Node000001" class="node">
<title>Node1</title>
<g id="a_Node000001"><a xlink:title=" ">
<polygon fill="#999999" stroke="#666666" points="474,-85 348,-85 348,-66 474,-66 474,-85"/>
<text text-anchor="middle" x="411" y="-73" font-family="Helvetica,sans-Serif" font-size="10.00">include/simple_sorts.h</text>
</a>
</g>
</g>
<!-- Node2 -->
<g id="Node000002" class="node">
<title>Node2</title>
<g id="a_Node000002"><a xlink:href="bubble_8c.html" target="_top" xlink:title=" ">
<polygon fill="white" stroke="#666666" points="122,-30 0,-30 0,0 122,0 122,-30"/>
<text text-anchor="start" x="8" y="-18" font-family="Helvetica,sans-Serif" font-size="10.00">src/algorithms/simple</text>
<text text-anchor="middle" x="61" y="-7" font-family="Helvetica,sans-Serif" font-size="10.00">/bubble.c</text>
</a>
</g>
</g>
<!-- Node1&#45;&gt;Node2 -->
<g id="edge1_Node000001_Node000002" class="edge">
<title>Node1&#45;&gt;Node2</title>
<g id="a_edge1_Node000001_Node000002"><a xlink:title=" ">
<path fill="none" stroke="#63b8ff" d="M343.03,-64.47C286.25,-55.91 203.21,-42.95 131,-30 128.07,-29.47 125.08,-28.93 122.06,-28.36"/>
<polygon fill="#63b8ff" stroke="#63b8ff" points="342.56,-67.94 352.97,-65.97 343.6,-61.02 342.56,-67.94"/>
</a>
</g>
</g>
<!-- Node3 -->
<g id="Node000003" class="node">
<title>Node3</title>
<g id="a_Node000003"><a xlink:href="gnome__stooge_8c.html" target="_top" xlink:title=" ">
<polygon fill="white" stroke="#666666" points="262,-30 140,-30 140,0 262,0 262,-30"/>
<text text-anchor="start" x="148" y="-18" font-family="Helvetica,sans-Serif" font-size="10.00">src/algorithms/simple</text>
<text text-anchor="middle" x="201" y="-7" font-family="Helvetica,sans-Serif" font-size="10.00">/gnome_stooge.c</text>
</a>
</g>
</g>
<!-- Node1&#45;&gt;Node3 -->
<g id="edge2_Node000001_Node000003" class="edge">
<title>Node1&#45;&gt;Node3</title>
<g id="a_edge2_Node000001_Node000003"><a xlink:title=" ">
<path fill="none" stroke="#63b8ff" d="M370.43,-63.2C336.5,-53.75 287.93,-40.22 251.49,-30.06"/>
<polygon fill="#63b8ff" stroke="#63b8ff" points="369.89,-66.68 380.46,-65.99 371.77,-59.94 369.89,-66.68"/>
</a>
</g>
</g>
<!-- Node4 -->
<g id="Node000004" class="node">
<title>Node4</title>
<g id="a_Node000004"><a xlink:href="insertion_8c.html" target="_top" xlink:title=" ">
<polygon fill="white" stroke="#666666" points="402,-30 280,-30 280,0 402,0 402,-30"/>
<text text-anchor="start" x="288" y="-18" font-family="Helvetica,sans-Serif" font-size="10.00">src/algorithms/simple</text>
<text text-anchor="middle" x="341" y="-7" font-family="Helvetica,sans-Serif" font-size="10.00">/insertion.c</text>
</a>
</g>
</g>
<!-- Node1&#45;&gt;Node4 -->
<g id="edge3_Node000001_Node000004" class="edge">
<title>Node1&#45;&gt;Node4</title>
<g id="a_edge3_Node000001_Node000004"><a xlink:title=" ">
<path fill="none" stroke="#63b8ff" d="M392.73,-59.23C381.96,-50.23 368.42,-38.91 357.89,-30.11"/>
<polygon fill="#63b8ff" stroke="#63b8ff" points="390.75,-62.14 400.67,-65.87 395.24,-56.77 390.75,-62.14"/>
</a>
</g>
</g>
<!-- Node5 -->
<g id="Node000005" class="node">
<title>Node5</title>
<g id="a_Node000005"><a xlink:href="selection_8c.html" target="_top" xlink:title=" ">
<polygon fill="white" stroke="#666666" points="542,-30 420,-30 420,0 542,0 542,-30"/>
<text text-anchor="start" x="428" y="-18" font-family="Helvetica,sans-Serif" font-size="10.00">src/algorithms/simple</text>
<text text-anchor="middle" x="481" y="-7" font-family="Helvetica,sans-Serif" font-size="10.00">/selection.c</text>
</a>
</g>
</g>
<!-- Node1&#45;&gt;Node5 -->
<g id="edge4_Node000001_Node000005" class="edge">
<title>Node1&#45;&gt;Node5</title>
<g id="a_edge4_Node000001_Node000005"><a xlink:title=" ">
<path fill="none" stroke="#63b8ff" d="M429.27,-59.23C440.04,-50.23 453.58,-38.91 464.11,-30.11"/>
<polygon fill="#63b8ff" stroke="#63b8ff" points="426.76,-56.77 421.33,-65.87 431.25,-62.14 426.76,-56.77"/>
</a>
</g>
</g>
<!-- Node6 -->
<g id="Node000006" class="node">
<title>Node6</title>
<g id="a_Node000006"><a xlink:href="shell_8c.html" target="_top" xlink:title=" ">
<polygon fill="white" stroke="#666666" points="682,-30 560,-30 560,0 682,0 682,-30"/>
<text text-anchor="start" x="568" y="-18" font-family="Helvetica,sans-Serif" font-size="10.00">src/algorithms/simple</text>
<text text-anchor="middle" x="621" y="-7" font-family="Helvetica,sans-Serif" font-size="10.00">/shell.c</text>
</a>
</g>
</g>
<!-- Node1&#45;&gt;Node6 -->
<g id="edge5_Node000001_Node000006" class="edge">
<title>Node1&#45;&gt;Node6</title>
<g id="a_edge5_Node000001_Node000006"><a xlink:title=" ">
<path fill="none" stroke="#63b8ff" d="M451.57,-63.2C485.5,-53.75 534.07,-40.22 570.51,-30.06"/>
<polygon fill="#63b8ff" stroke="#63b8ff" points="450.23,-59.94 441.54,-65.99 452.11,-66.68 450.23,-59.94"/>
</a>
</g>
</g>
<!-- Node7 -->
<g id="Node000007" class="node">
<title>Node7</title>
<g id="a_Node000007"><a xlink:href="utils_8c.html" target="_top" xlink:title=" ">
<polygon fill="white" stroke="#666666" points="822,-30 700,-30 700,0 822,0 822,-30"/>
<text text-anchor="start" x="708" y="-18" font-family="Helvetica,sans-Serif" font-size="10.00">src/algorithms/simple</text>
<text text-anchor="middle" x="761" y="-7" font-family="Helvetica,sans-Serif" font-size="10.00">/utils.c</text>
</a>
</g>
</g>
<!-- Node1&#45;&gt;Node7 -->
<g id="edge6_Node000001_Node000007" class="edge">
<title>Node1&#45;&gt;Node7</title>
<g id="a_edge6_Node000001_Node000007"><a xlink:title=" ">
<path fill="none" stroke="#63b8ff" d="M478.97,-64.47C535.75,-55.91 618.79,-42.95 691,-30 693.93,-29.47 696.92,-28.93 699.94,-28.36"/>
<polygon fill="#63b8ff" stroke="#63b8ff" points="478.4,-61.02 469.03,-65.97 479.44,-67.94 478.4,-61.02"/>
</a>
</g>
</g>
</g>
</svg>
