<?xml version="1.0" encoding="UTF-8" standalone="no"?>
<!DOCTYPE svg PUBLIC "-//W3C//DTD SVG 1.1//EN"
 "http://www.w3.org/Graphics/SVG/1.1/DTD/svg11.dtd">
<!-- Generated by graphviz version 2.43.0 (0)
 -->
<!-- Title: insertion_sort Pages: 1 -->
<svg width="333pt" height="46pt"
 viewBox="0.00 0.00 333.00 46.00" xmlns="http://www.w3.org/2000/svg" xmlns:xlink="http://www.w3.org/1999/xlink">
<g id="graph0" class="graph" transform="scale(1 1) rotate(0) translate(4 42)">
<title>insertion_sort</title>
<!-- Node1 -->
<g id="Node000001" class="node">
<title>Node1</title>
<g id="a_Node000001"><a xlink:title=" ">
<polygon fill="#999999" stroke="#666666" points="83,-19 0,-19 0,0 83,0 83,-19"/>
<text text-anchor="middle" x="41.5" y="-7" font-family="Helvetica,sans-Serif" font-size="10.00">insertion_sort</text>
</a>
</g>
</g>
<!-- Node2 -->
<g id="Node000002" class="node">
<title>Node2</title>
<g id="a_Node000002"><a xlink:href="insertion_8c.html#a3b6ed9935be78eaca6454609a4662d74" target="_top" xlink:title=" ">
<polygon fill="white" stroke="#666666" points="248,-38 119,-38 119,-19 248,-19 248,-38"/>
<text text-anchor="middle" x="183.5" y="-26" font-family="Helvetica,sans-Serif" font-size="10.00">binary_search_position</text>
</a>
</g>
</g>
<!-- Node1&#45;&gt;Node2 -->
<g id="edge1_Node000001_Node000002" class="edge">
<title>Node1&#45;&gt;Node2</title>
<g id="a_edge1_Node000001_Node000002"><a xlink:title=" ">
<path fill="none" stroke="#63b8ff" d="M83.37,-15.05C91.46,-16.14 100.19,-17.33 108.99,-18.52"/>
<polygon fill="#63b8ff" stroke="#63b8ff" points="108.54,-21.99 118.92,-19.87 109.48,-15.06 108.54,-21.99"/>
</a>
</g>
</g>
<!-- Node3 -->
<g id="Node000003" class="node">
<title>Node3</title>
<g id="a_Node000003"><a xlink:href="utils_8c.html#ab01c5cf8a3ee61f320ed3f07fe03b9e5" target="_top" xlink:title=" ">
<polygon fill="white" stroke="#666666" points="325,-19 284,-19 284,0 325,0 325,-19"/>
<text text-anchor="middle" x="304.5" y="-7" font-family="Helvetica,sans-Serif" font-size="10.00">elem</text>
</a>
</g>
</g>
<!-- Node1&#45;&gt;Node3 -->
<g id="edge3_Node000001_Node000003" class="edge">
<title>Node1&#45;&gt;Node3</title>
<g id="a_edge3_Node000001_Node000003"><a xlink:title=" ">
<path fill="none" stroke="#63b8ff" d="M83.28,-9.5C136.09,-9.5 226.88,-9.5 273.68,-9.5"/>
<polygon fill="#63b8ff" stroke="#63b8ff" points="273.78,-13 283.78,-9.5 273.78,-6 273.78,-13"/>
</a>
</g>
</g>
<!-- Node2&#45;&gt;Node3 -->
<g id="edge2_Node000002_Node000003" class="edge">
<title>Node2&#45;&gt;Node3</title>
<g id="a_edge2_Node000002_Node000003"><a xlink:title=" ">
<path fill="none" stroke="#63b8ff" d="M244.35,-18.94C254.67,-17.3 264.97,-15.65 274.02,-14.21"/>
<polygon fill="#63b8ff" stroke="#63b8ff" points="274.66,-17.65 283.99,-12.62 273.56,-10.74 274.66,-17.65"/>
</a>
</g>
</g>
</g>
</svg>
