<?xml version="1.0" encoding="UTF-8" standalone="no"?>
<!DOCTYPE svg PUBLIC "-//W3C//DTD SVG 1.1//EN"
 "http://www.w3.org/Graphics/SVG/1.1/DTD/svg11.dtd">
<!-- Generated by graphviz version 2.43.0 (0)
 -->
<!-- Title: selection_sort Pages: 1 -->
<svg width="203pt" height="64pt"
 viewBox="0.00 0.00 203.00 64.00" xmlns="http://www.w3.org/2000/svg" xmlns:xlink="http://www.w3.org/1999/xlink">
<g id="graph0" class="graph" transform="scale(1 1) rotate(0) translate(4 60)">
<title>selection_sort</title>
<!-- Node1 -->
<g id="Node000001" class="node">
<title>Node1</title>
<g id="a_Node000001"><a xlink:title=" ">
<polygon fill="#999999" stroke="#666666" points="85,-37 0,-37 0,-18 85,-18 85,-37"/>
<text text-anchor="middle" x="42.5" y="-25" font-family="Helvetica,sans-Serif" font-size="10.00">selection_sort</text>
</a>
</g>
</g>
<!-- Node2 -->
<g id="Node000002" class="node">
<title>Node2</title>
<g id="a_Node000002"><a xlink:href="utils_8c.html#ab01c5cf8a3ee61f320ed3f07fe03b9e5" target="_top" xlink:title=" ">
<polygon fill="white" stroke="#666666" points="178.5,-56 137.5,-56 137.5,-37 178.5,-37 178.5,-56"/>
<text text-anchor="middle" x="158" y="-44" font-family="Helvetica,sans-Serif" font-size="10.00">elem</text>
</a>
</g>
</g>
<!-- Node1&#45;&gt;Node2 -->
<g id="edge1_Node000001_Node000002" class="edge">
<title>Node1&#45;&gt;Node2</title>
<g id="a_edge1_Node000001_Node000002"><a xlink:title=" ">
<path fill="none" stroke="#63b8ff" d="M85.12,-34.47C99.06,-36.8 114.31,-39.35 127.16,-41.51"/>
<polygon fill="#63b8ff" stroke="#63b8ff" points="126.88,-45.01 137.32,-43.21 128.03,-38.1 126.88,-45.01"/>
</a>
</g>
</g>
<!-- Node3 -->
<g id="Node000003" class="node">
<title>Node3</title>
<g id="a_Node000003"><a xlink:href="utils_8c.html#a13a6079ca7d61b8f7f9d4e3106f72918" target="_top" xlink:title=" ">
<polygon fill="white" stroke="#666666" points="195,-19 121,-19 121,0 195,0 195,-19"/>
<text text-anchor="middle" x="158" y="-7" font-family="Helvetica,sans-Serif" font-size="10.00">swap_bytes</text>
</a>
</g>
</g>
<!-- Node1&#45;&gt;Node3 -->
<g id="edge2_Node000001_Node000003" class="edge">
<title>Node1&#45;&gt;Node3</title>
<g id="a_edge2_Node000001_Node000003"><a xlink:title=" ">
<path fill="none" stroke="#63b8ff" d="M85.12,-20.9C93.58,-19.56 102.52,-18.14 111.11,-16.78"/>
<polygon fill="#63b8ff" stroke="#63b8ff" points="111.67,-20.23 121,-15.21 110.57,-13.32 111.67,-20.23"/>
</a>
</g>
</g>
</g>
</svg>
