<?xml version="1.0" encoding="UTF-8" standalone="no"?>
<!DOCTYPE svg PUBLIC "-//W3C//DTD SVG 1.1//EN"
 "http://www.w3.org/Graphics/SVG/1.1/DTD/svg11.dtd">
<!-- Generated by graphviz version 2.43.0 (0)
 -->
<!-- Title: elem Pages: 1 -->
<svg width="333pt" height="269pt"
 viewBox="0.00 0.00 333.00 269.00" xmlns="http://www.w3.org/2000/svg" xmlns:xlink="http://www.w3.org/1999/xlink">

<svg id="main" version="1.1" xmlns="http://www.w3.org/2000/svg" xmlns:xlink="http://www.w3.org/1999/xlink" xml:space="preserve" onload="init(evt)">
<style type="text/css"><![CDATA[
.node, .edge {opacity: 0.7;}
.node.selected, .edge.selected {opacity: 1;}
.edge:hover path { stroke: red; }
.edge:hover polygon { stroke: red; fill: red; }
]]></style>
<script type="application/ecmascript" xlink:href="svg.min.js"/>
<svg id="graph" class="graph">
<g id="graph0" class="graph" transform="scale(1 1) rotate(0) translate(4 265)">
<title>elem</title>
<!-- Node1 -->
<g id="Node000001" class="node">
<title>Node1</title>
<g id="a_Node000001"><a xlink:title=" ">
<polygon fill="#999999" stroke="#666666" points="325,-148 284,-148 284,-129 325,-129 325,-148"/>
<text text-anchor="middle" x="304.5" y="-136" font-family="Helvetica,sans-Serif" font-size="10.00">elem</text>
</a>
</g>
</g>
<!-- Node2 -->
<g id="Node000002" class="node">
<title>Node2</title>
<g id="a_Node000002"><a xlink:href="insertion_8c.html#a3b6ed9935be78eaca6454609a4662d74" target="_top" xlink:title=" ">
<polygon fill="white" stroke="#666666" points="248,-261 119,-261 119,-242 248,-242 248,-261"/>
<text text-anchor="middle" x="183.5" y="-249" font-family="Helvetica,sans-Serif" font-size="10.00">binary_search_position</text>
</a>
</g>
</g>
<!-- Node1&#45;&gt;Node2 -->
<g id="edge1_Node000001_Node000002" class="edge">
<title>Node1&#45;&gt;Node2</title>
<g id="a_edge1_Node000001_Node000002"><a xlink:title=" ">
<path fill="none" stroke="#63b8ff" d="M296.01,-157.56C287.27,-177.55 271.01,-208.61 248,-227.5 240.44,-233.71 231.11,-238.41 221.94,-241.94"/>
<polygon fill="#63b8ff" stroke="#63b8ff" points="299.28,-158.82 299.9,-148.25 292.82,-156.13 299.28,-158.82"/>
</a>
</g>
</g>
<!-- Node3 -->
<g id="Node000003" class="node">
<title>Node3</title>
<g id="a_Node000003"><a xlink:href="insertion_8c.html#aa8450345d9a2b3880fb351ca4e4c7de9" target="_top" xlink:title=" ">
<polygon fill="white" stroke="#666666" points="83,-242 0,-242 0,-223 83,-223 83,-242"/>
<text text-anchor="middle" x="41.5" y="-230" font-family="Helvetica,sans-Serif" font-size="10.00">insertion_sort</text>
</a>
</g>
</g>
<!-- Node1&#45;&gt;Node3 -->
<g id="edge5_Node000001_Node000003" class="edge">
<title>Node1&#45;&gt;Node3</title>
<g id="a_edge5_Node000001_Node000003"><a xlink:title=" ">
<path fill="none" stroke="#63b8ff" d="M290.72,-156.25C280.59,-168.95 265.3,-185.35 248,-194.5 195.56,-222.23 126.28,-230.04 83.06,-232.06"/>
<polygon fill="#63b8ff" stroke="#63b8ff" points="293.59,-158.26 296.87,-148.19 288.02,-154.02 293.59,-158.26"/>
</a>
</g>
</g>
<!-- Node4 -->
<g id="Node000004" class="node">
<title>Node4</title>
<g id="a_Node000004"><a xlink:href="bubble_8c.html#a6934c940aaa57f08febf595e659a2b6a" target="_top" xlink:title=" ">
<polygon fill="white" stroke="#666666" points="220.5,-185 146.5,-185 146.5,-166 220.5,-166 220.5,-185"/>
<text text-anchor="middle" x="183.5" y="-173" font-family="Helvetica,sans-Serif" font-size="10.00">bubble_sort</text>
</a>
</g>
</g>
<!-- Node1&#45;&gt;Node4 -->
<g id="edge3_Node000001_Node000004" class="edge">
<title>Node1&#45;&gt;Node4</title>
<g id="a_edge3_Node000001_Node000004"><a xlink:title=" ">
<path fill="none" stroke="#63b8ff" d="M274.33,-148.81C265.87,-151.72 256.59,-154.81 248,-157.5 238.81,-160.37 228.82,-163.3 219.54,-165.93"/>
<polygon fill="#63b8ff" stroke="#63b8ff" points="275.5,-152.11 283.81,-145.53 273.21,-145.5 275.5,-152.11"/>
</a>
</g>
</g>
<!-- Node5 -->
<g id="Node000005" class="node">
<title>Node5</title>
<g id="a_Node000005"><a xlink:href="gnome__stooge_8c.html#a5c595044d19a1ad106fc75f7462b2993" target="_top" xlink:title=" ">
<polygon fill="white" stroke="#666666" points="220.5,-148 146.5,-148 146.5,-129 220.5,-129 220.5,-148"/>
<text text-anchor="middle" x="183.5" y="-136" font-family="Helvetica,sans-Serif" font-size="10.00">gnome_sort</text>
</a>
</g>
</g>
<!-- Node1&#45;&gt;Node5 -->
<g id="edge4_Node000001_Node000005" class="edge">
<title>Node1&#45;&gt;Node5</title>
<g id="a_edge4_Node000001_Node000005"><a xlink:title=" ">
<path fill="none" stroke="#63b8ff" d="M273.42,-138.5C257.34,-138.5 237.43,-138.5 220.54,-138.5"/>
<polygon fill="#63b8ff" stroke="#63b8ff" points="273.85,-142 283.85,-138.5 273.85,-135 273.85,-142"/>
</a>
</g>
</g>
<!-- Node6 -->
<g id="Node000006" class="node">
<title>Node6</title>
<g id="a_Node000006"><a xlink:href="selection_8c.html#a427978cbcbfbae8f989bb89b50616c47" target="_top" xlink:title=" ">
<polygon fill="white" stroke="#666666" points="226,-111 141,-111 141,-92 226,-92 226,-111"/>
<text text-anchor="middle" x="183.5" y="-99" font-family="Helvetica,sans-Serif" font-size="10.00">selection_sort</text>
</a>
</g>
</g>
<!-- Node1&#45;&gt;Node6 -->
<g id="edge6_Node000001_Node000006" class="edge">
<title>Node1&#45;&gt;Node6</title>
<g id="a_edge6_Node000001_Node000006"><a xlink:title=" ">
<path fill="none" stroke="#63b8ff" d="M274,-128.79C265.61,-126.07 256.46,-123.14 248,-120.5 237.89,-117.35 226.85,-114.01 216.85,-111.02"/>
<polygon fill="#63b8ff" stroke="#63b8ff" points="273.16,-132.2 283.76,-131.98 275.33,-125.55 273.16,-132.2"/>
</a>
</g>
</g>
<!-- Node7 -->
<g id="Node000007" class="node">
<title>Node7</title>
<g id="a_Node000007"><a xlink:href="shell_8c.html#a17aa4dbe87b277a71428f80318f8c7a6" target="_top" xlink:title=" ">
<polygon fill="white" stroke="#666666" points="215.5,-74 151.5,-74 151.5,-55 215.5,-55 215.5,-74"/>
<text text-anchor="middle" x="183.5" y="-62" font-family="Helvetica,sans-Serif" font-size="10.00">shell_sort</text>
</a>
</g>
</g>
<!-- Node1&#45;&gt;Node7 -->
<g id="edge7_Node000001_Node000007" class="edge">
<title>Node1&#45;&gt;Node7</title>
<g id="a_edge7_Node000001_Node000007"><a xlink:title=" ">
<path fill="none" stroke="#63b8ff" d="M289.7,-120.83C279.4,-108.74 264.33,-93.2 248,-83.5 238.2,-77.68 226.49,-73.52 215.8,-70.61"/>
<polygon fill="#63b8ff" stroke="#63b8ff" points="287.27,-123.38 296.31,-128.9 292.68,-118.94 287.27,-123.38"/>
</a>
</g>
</g>
<!-- Node8 -->
<g id="Node000008" class="node">
<title>Node8</title>
<g id="a_Node000008"><a xlink:href="gnome__stooge_8c.html#a0a0b3550eb46253844372846e7e75757" target="_top" xlink:title=" ">
<polygon fill="white" stroke="#666666" points="220.5,-19 146.5,-19 146.5,0 220.5,0 220.5,-19"/>
<text text-anchor="middle" x="183.5" y="-7" font-family="Helvetica,sans-Serif" font-size="10.00">stooge_sort</text>
</a>
</g>
</g>
<!-- Node1&#45;&gt;Node8 -->
<g id="edge8_Node000001_Node000008" class="edge">
<title>Node1&#45;&gt;Node8</title>
<g id="a_edge8_Node000001_Node000008"><a xlink:title=" ">
<path fill="none" stroke="#63b8ff" d="M295.51,-119.53C286.34,-99.49 269.73,-67.9 248,-46.5 236.18,-34.86 219.99,-25.5 206.92,-19.11"/>
<polygon fill="#63b8ff" stroke="#63b8ff" points="292.38,-121.1 299.61,-128.84 298.78,-118.27 292.38,-121.1"/>
</a>
</g>
</g>
<!-- Node2&#45;&gt;Node3 -->
<g id="edge2_Node000002_Node000003" class="edge">
<title>Node2&#45;&gt;Node3</title>
<g id="a_edge2_Node000002_Node000003"><a xlink:title=" ">
<path fill="none" stroke="#63b8ff" d="M108.68,-241.48C99.86,-240.28 91.12,-239.1 83.02,-238"/>
<polygon fill="#63b8ff" stroke="#63b8ff" points="108.27,-244.96 118.65,-242.83 109.21,-238.02 108.27,-244.96"/>
</a>
</g>
</g>
<!-- Node8&#45;&gt;Node8 -->
<g id="edge9_Node000008_Node000008" class="edge">
<title>Node8&#45;&gt;Node8</title>
<g id="a_edge9_Node000008_Node000008"><a xlink:title=" ">
<path fill="none" stroke="#63b8ff" d="M205.72,-28.55C204.24,-33.38 196.83,-37 183.5,-37 162.17,-37 156.01,-27.73 165,-19.08"/>
<polygon fill="#63b8ff" stroke="#63b8ff" points="208.91,-27.11 202,-19.08 202.4,-29.67 208.91,-27.11"/>
</a>
</g>
</g>
</g>
</svg>
</svg>

<style type='text/css'>
<![CDATA[
[data-mouse-over-selected='false'] { opacity: 0.7; }
[data-mouse-over-selected='true']  { opacity: 1.0; }
]]>
</style>
<script type="application/ecmascript"><![CDATA[
document.addEventListener('DOMContentLoaded', (event) => {
  highlightEdges();
  highlightAdjacentNodes();
});
]]></script>
</svg>
