<?xml version="1.0" encoding="UTF-8" standalone="no"?>
<!DOCTYPE svg PUBLIC "-//W3C//DTD SVG 1.1//EN"
 "http://www.w3.org/Graphics/SVG/1.1/DTD/svg11.dtd">
<!-- Generated by graphviz version 2.43.0 (0)
 -->
<!-- Title: swap_bytes Pages: 1 -->
<svg width="203pt" height="156pt"
 viewBox="0.00 0.00 203.00 156.00" xmlns="http://www.w3.org/2000/svg" xmlns:xlink="http://www.w3.org/1999/xlink">
<g id="graph0" class="graph" transform="scale(1 1) rotate(0) translate(4 152)">
<title>swap_bytes</title>
<!-- Node1 -->
<g id="Node000001" class="node">
<title>Node1</title>
<g id="a_Node000001"><a xlink:title=" ">
<polygon fill="#999999" stroke="#666666" points="195,-92 121,-92 121,-73 195,-73 195,-92"/>
<text text-anchor="middle" x="158" y="-80" font-family="Helvetica,sans-Serif" font-size="10.00">swap_bytes</text>
</a>
</g>
</g>
<!-- Node2 -->
<g id="Node000002" class="node">
<title>Node2</title>
<g id="a_Node000002"><a xlink:href="bubble_8c.html#a6934c940aaa57f08febf595e659a2b6a" target="_top" xlink:title=" ">
<polygon fill="white" stroke="#666666" points="79.5,-148 5.5,-148 5.5,-129 79.5,-129 79.5,-148"/>
<text text-anchor="middle" x="42.5" y="-136" font-family="Helvetica,sans-Serif" font-size="10.00">bubble_sort</text>
</a>
</g>
</g>
<!-- Node1&#45;&gt;Node2 -->
<g id="edge1_Node000001_Node000002" class="edge">
<title>Node1&#45;&gt;Node2</title>
<g id="a_edge1_Node000001_Node000002"><a xlink:title=" ">
<path fill="none" stroke="#63b8ff" d="M130.93,-96.87C117.36,-104.2 100.43,-113.1 85,-120.5 79.05,-123.35 72.54,-126.27 66.47,-128.91"/>
<polygon fill="#63b8ff" stroke="#63b8ff" points="132.62,-99.94 139.73,-92.09 129.27,-93.79 132.62,-99.94"/>
</a>
</g>
</g>
<!-- Node3 -->
<g id="Node000003" class="node">
<title>Node3</title>
<g id="a_Node000003"><a xlink:href="gnome__stooge_8c.html#a5c595044d19a1ad106fc75f7462b2993" target="_top" xlink:title=" ">
<polygon fill="white" stroke="#666666" points="79.5,-111 5.5,-111 5.5,-92 79.5,-92 79.5,-111"/>
<text text-anchor="middle" x="42.5" y="-99" font-family="Helvetica,sans-Serif" font-size="10.00">gnome_sort</text>
</a>
</g>
</g>
<!-- Node1&#45;&gt;Node3 -->
<g id="edge2_Node000001_Node000003" class="edge">
<title>Node1&#45;&gt;Node3</title>
<g id="a_edge2_Node000001_Node000003"><a xlink:title=" ">
<path fill="none" stroke="#63b8ff" d="M110.68,-90.25C100.38,-91.98 89.6,-93.78 79.77,-95.43"/>
<polygon fill="#63b8ff" stroke="#63b8ff" points="111.49,-93.67 120.78,-88.56 110.34,-86.76 111.49,-93.67"/>
</a>
</g>
</g>
<!-- Node4 -->
<g id="Node000004" class="node">
<title>Node4</title>
<g id="a_Node000004"><a xlink:href="selection_8c.html#a427978cbcbfbae8f989bb89b50616c47" target="_top" xlink:title=" ">
<polygon fill="white" stroke="#666666" points="85,-74 0,-74 0,-55 85,-55 85,-74"/>
<text text-anchor="middle" x="42.5" y="-62" font-family="Helvetica,sans-Serif" font-size="10.00">selection_sort</text>
</a>
</g>
</g>
<!-- Node1&#45;&gt;Node4 -->
<g id="edge3_Node000001_Node000004" class="edge">
<title>Node1&#45;&gt;Node4</title>
<g id="a_edge3_Node000001_Node000004"><a xlink:title=" ">
<path fill="none" stroke="#63b8ff" d="M110.72,-75.16C102.31,-73.83 93.58,-72.44 85.31,-71.13"/>
<polygon fill="#63b8ff" stroke="#63b8ff" points="110.35,-78.65 120.78,-76.76 111.45,-71.73 110.35,-78.65"/>
</a>
</g>
</g>
<!-- Node5 -->
<g id="Node000005" class="node">
<title>Node5</title>
<g id="a_Node000005"><a xlink:href="gnome__stooge_8c.html#a0a0b3550eb46253844372846e7e75757" target="_top" xlink:title=" ">
<polygon fill="white" stroke="#666666" points="79.5,-19 5.5,-19 5.5,0 79.5,0 79.5,-19"/>
<text text-anchor="middle" x="42.5" y="-7" font-family="Helvetica,sans-Serif" font-size="10.00">stooge_sort</text>
</a>
</g>
</g>
<!-- Node1&#45;&gt;Node5 -->
<g id="edge4_Node000001_Node000005" class="edge">
<title>Node1&#45;&gt;Node5</title>
<g id="a_edge4_Node000001_Node000005"><a xlink:title=" ">
<path fill="none" stroke="#63b8ff" d="M133.51,-67.39C110.92,-52.86 77.46,-31.34 58.34,-19.05"/>
<polygon fill="#63b8ff" stroke="#63b8ff" points="131.86,-70.49 142.16,-72.96 135.64,-64.6 131.86,-70.49"/>
</a>
</g>
</g>
<!-- Node5&#45;&gt;Node5 -->
<g id="edge5_Node000005_Node000005" class="edge">
<title>Node5&#45;&gt;Node5</title>
<g id="a_edge5_Node000005_Node000005"><a xlink:title=" ">
<path fill="none" stroke="#63b8ff" d="M63.61,-28.55C62.2,-33.38 55.16,-37 42.5,-37 22.24,-37 16.38,-27.73 24.93,-19.08"/>
<polygon fill="#63b8ff" stroke="#63b8ff" points="66.85,-27.22 60.07,-19.08 60.29,-29.68 66.85,-27.22"/>
</a>
</g>
</g>
</g>
</svg>
